<mxfile host="app.diagrams.net" modified="2023-04-17T09:31:41.592Z" agent="Mozilla/5.0 (Windows NT 10.0; Win64; x64) AppleWebKit/537.36 (KHTML, like Gecko) Chrome/112.0.0.0 Safari/537.36" etag="bd3RuuA04rGTCqE02YXw" version="21.1.7" type="device">
  <diagram name="Page-1" id="wY8YDzLvJTrgZEUhbYze">
    <mxGraphModel dx="552" dy="303" grid="1" gridSize="10" guides="1" tooltips="1" connect="1" arrows="1" fold="1" page="1" pageScale="1" pageWidth="827" pageHeight="1169" math="0" shadow="0">
      <root>
        <mxCell id="0" />
        <mxCell id="1" parent="0" />
        <mxCell id="WTguVuReiUjEnsbTcqU9-1" value="" style="swimlane;startSize=0;hachureGap=4;fontFamily=Architects Daughter;fontSource=https%3A%2F%2Ffonts.googleapis.com%2Fcss%3Ffamily%3DArchitects%2BDaughter;fontSize=20;rounded=1;swimlaneLine=0;strokeWidth=3;" parent="1" vertex="1">
          <mxGeometry x="119" y="50" width="560" height="950" as="geometry">
            <mxRectangle x="119" y="50" width="50" height="40" as="alternateBounds" />
          </mxGeometry>
        </mxCell>
        <mxCell id="WTguVuReiUjEnsbTcqU9-4" value="&lt;font face=&quot;Times New Roman&quot;&gt;&lt;span style=&quot;font-size: 14px;&quot;&gt;Account Manager&lt;/span&gt;&lt;/font&gt;" style="ellipse;whiteSpace=wrap;html=1;hachureGap=4;fontFamily=Architects Daughter;fontSource=https%3A%2F%2Ffonts.googleapis.com%2Fcss%3Ffamily%3DArchitects%2BDaughter;fontSize=20;shadow=0;strokeWidth=2;rounded=1;fillColor=none;" parent="WTguVuReiUjEnsbTcqU9-1" vertex="1">
          <mxGeometry x="80" y="855" width="120" height="50" as="geometry" />
        </mxCell>
        <mxCell id="WTguVuReiUjEnsbTcqU9-11" value="&lt;p&gt;&lt;font face=&quot;Times New Roman&quot;&gt;&lt;b&gt;Primary School Communication Module&lt;/b&gt;&lt;/font&gt;&lt;/p&gt;" style="text;html=1;strokeColor=none;fillColor=none;align=center;verticalAlign=middle;whiteSpace=wrap;rounded=1;fontSize=20;fontFamily=Architects Daughter;" parent="WTguVuReiUjEnsbTcqU9-1" vertex="1">
          <mxGeometry x="30" y="10" width="500" height="30" as="geometry" />
        </mxCell>
        <mxCell id="WTguVuReiUjEnsbTcqU9-18" value="&lt;font face=&quot;Times New Roman&quot;&gt;&lt;span style=&quot;font-size: 14px;&quot;&gt;Create Class&lt;/span&gt;&lt;/font&gt;" style="ellipse;whiteSpace=wrap;html=1;hachureGap=4;fontFamily=Architects Daughter;fontSource=https%3A%2F%2Ffonts.googleapis.com%2Fcss%3Ffamily%3DArchitects%2BDaughter;fontSize=20;shadow=0;strokeWidth=2;rounded=1;fillColor=none;" parent="WTguVuReiUjEnsbTcqU9-1" vertex="1">
          <mxGeometry x="80" y="580" width="120" height="50" as="geometry" />
        </mxCell>
        <mxCell id="WTguVuReiUjEnsbTcqU9-19" value="&lt;font face=&quot;Times New Roman&quot;&gt;&lt;span style=&quot;font-size: 14px;&quot;&gt;Add Student&lt;/span&gt;&lt;/font&gt;" style="ellipse;whiteSpace=wrap;html=1;hachureGap=4;fontFamily=Architects Daughter;fontSource=https%3A%2F%2Ffonts.googleapis.com%2Fcss%3Ffamily%3DArchitects%2BDaughter;fontSize=20;shadow=0;strokeWidth=2;rounded=1;fillColor=none;" parent="WTguVuReiUjEnsbTcqU9-1" vertex="1">
          <mxGeometry x="360" y="580" width="120" height="50" as="geometry" />
        </mxCell>
        <mxCell id="WTguVuReiUjEnsbTcqU9-20" value="" style="endArrow=none;dashed=1;html=1;dashPattern=1 3;strokeWidth=2;rounded=1;exitX=0;exitY=0.5;exitDx=0;exitDy=0;entryX=1;entryY=0.5;entryDx=0;entryDy=0;startArrow=block;startFill=1;" parent="WTguVuReiUjEnsbTcqU9-1" source="WTguVuReiUjEnsbTcqU9-19" target="WTguVuReiUjEnsbTcqU9-18" edge="1">
          <mxGeometry width="50" height="50" relative="1" as="geometry">
            <mxPoint x="330" y="580" as="sourcePoint" />
            <mxPoint x="380" y="530" as="targetPoint" />
          </mxGeometry>
        </mxCell>
        <mxCell id="WTguVuReiUjEnsbTcqU9-21" value="&amp;lt;&amp;lt;Include&amp;gt;&amp;gt;" style="edgeLabel;html=1;align=center;verticalAlign=middle;resizable=0;points=[];rounded=1;" parent="WTguVuReiUjEnsbTcqU9-20" vertex="1" connectable="0">
          <mxGeometry x="-0.3697" y="-1" relative="1" as="geometry">
            <mxPoint x="-18" y="11" as="offset" />
          </mxGeometry>
        </mxCell>
        <mxCell id="WTguVuReiUjEnsbTcqU9-22" value="&lt;p style=&quot;line-height: 70%;&quot;&gt;&lt;font face=&quot;Times New Roman&quot; style=&quot;font-size: 14px;&quot;&gt;Appointment of teachers&lt;/font&gt;&lt;/p&gt;" style="ellipse;whiteSpace=wrap;html=1;hachureGap=4;fontFamily=Architects Daughter;fontSource=https%3A%2F%2Ffonts.googleapis.com%2Fcss%3Ffamily%3DArchitects%2BDaughter;fontSize=20;shadow=0;strokeWidth=2;rounded=1;fillColor=none;" parent="WTguVuReiUjEnsbTcqU9-1" vertex="1">
          <mxGeometry x="360" y="510" width="120" height="50" as="geometry" />
        </mxCell>
        <mxCell id="WTguVuReiUjEnsbTcqU9-23" value="" style="endArrow=none;dashed=1;html=1;dashPattern=1 3;strokeWidth=2;rounded=1;exitX=0;exitY=0.5;exitDx=0;exitDy=0;entryX=1;entryY=0.5;entryDx=0;entryDy=0;startArrow=block;startFill=1;" parent="WTguVuReiUjEnsbTcqU9-1" source="WTguVuReiUjEnsbTcqU9-22" target="WTguVuReiUjEnsbTcqU9-18" edge="1">
          <mxGeometry width="50" height="50" relative="1" as="geometry">
            <mxPoint x="150" y="600" as="sourcePoint" />
            <mxPoint x="150" y="545" as="targetPoint" />
            <Array as="points">
              <mxPoint x="310" y="535" />
              <mxPoint x="250" y="605" />
            </Array>
          </mxGeometry>
        </mxCell>
        <mxCell id="WTguVuReiUjEnsbTcqU9-24" value="&amp;lt;&amp;lt;Include&amp;gt;&amp;gt;" style="edgeLabel;html=1;align=center;verticalAlign=middle;resizable=0;points=[];rounded=1;" parent="WTguVuReiUjEnsbTcqU9-23" vertex="1" connectable="0">
          <mxGeometry x="-0.3697" y="-1" relative="1" as="geometry">
            <mxPoint x="13" y="20" as="offset" />
          </mxGeometry>
        </mxCell>
        <mxCell id="WTguVuReiUjEnsbTcqU9-27" value="&lt;font style=&quot;font-size: 14px;&quot; face=&quot;Times New Roman&quot;&gt;Modify Schedule&lt;/font&gt;" style="ellipse;whiteSpace=wrap;html=1;hachureGap=4;fontFamily=Architects Daughter;fontSource=https%3A%2F%2Ffonts.googleapis.com%2Fcss%3Ffamily%3DArchitects%2BDaughter;fontSize=20;shadow=0;strokeWidth=2;rounded=1;fillColor=none;align=center;" parent="WTguVuReiUjEnsbTcqU9-1" vertex="1">
          <mxGeometry x="80" y="650" width="120" height="50" as="geometry" />
        </mxCell>
        <mxCell id="WTguVuReiUjEnsbTcqU9-31" value="&lt;font style=&quot;font-size: 14px;&quot; face=&quot;Times New Roman&quot;&gt;View Schedule&lt;/font&gt;" style="ellipse;whiteSpace=wrap;html=1;hachureGap=4;fontFamily=Architects Daughter;fontSource=https%3A%2F%2Ffonts.googleapis.com%2Fcss%3Ffamily%3DArchitects%2BDaughter;fontSize=20;shadow=0;strokeWidth=2;rounded=1;fillColor=none;align=center;" parent="WTguVuReiUjEnsbTcqU9-1" vertex="1">
          <mxGeometry x="360" y="650" width="120" height="50" as="geometry" />
        </mxCell>
        <mxCell id="WTguVuReiUjEnsbTcqU9-38" value="&lt;font style=&quot;font-size: 14px;&quot; face=&quot;Times New Roman&quot;&gt;Modify Score Sheet&lt;/font&gt;" style="ellipse;whiteSpace=wrap;html=1;hachureGap=4;fontFamily=Architects Daughter;fontSource=https%3A%2F%2Ffonts.googleapis.com%2Fcss%3Ffamily%3DArchitects%2BDaughter;fontSize=20;shadow=0;strokeWidth=2;rounded=1;fillColor=none;align=center;" parent="WTguVuReiUjEnsbTcqU9-1" vertex="1">
          <mxGeometry x="80" y="300" width="120" height="50" as="geometry" />
        </mxCell>
        <mxCell id="WTguVuReiUjEnsbTcqU9-58" value="&lt;font face=&quot;Times New Roman&quot;&gt;&lt;span style=&quot;font-size: 14px;&quot;&gt;View List Student&lt;/span&gt;&lt;/font&gt;" style="ellipse;whiteSpace=wrap;html=1;hachureGap=4;fontFamily=Architects Daughter;fontSource=https%3A%2F%2Ffonts.googleapis.com%2Fcss%3Ffamily%3DArchitects%2BDaughter;fontSize=20;shadow=0;strokeWidth=2;rounded=1;fillColor=none;" parent="WTguVuReiUjEnsbTcqU9-1" vertex="1">
          <mxGeometry x="80" y="370" width="120" height="50" as="geometry" />
        </mxCell>
        <mxCell id="25oMk8hFQCMw-sVHnNX6-2" value="&lt;font style=&quot;font-size: 14px;&quot; face=&quot;Times New Roman&quot;&gt;View score sheet&lt;/font&gt;" style="ellipse;whiteSpace=wrap;html=1;hachureGap=4;fontFamily=Architects Daughter;fontSource=https%3A%2F%2Ffonts.googleapis.com%2Fcss%3Ffamily%3DArchitects%2BDaughter;fontSize=20;shadow=0;strokeWidth=2;rounded=1;fillColor=none;align=center;" parent="WTguVuReiUjEnsbTcqU9-1" vertex="1">
          <mxGeometry x="80" y="230" width="120" height="50" as="geometry" />
        </mxCell>
        <mxCell id="60XK2_KCmiy80lGmcRLf-10" value="&lt;font face=&quot;Times New Roman&quot;&gt;&lt;span style=&quot;font-size: 14px;&quot;&gt;Enter Score&lt;/span&gt;&lt;/font&gt;" style="ellipse;whiteSpace=wrap;html=1;hachureGap=4;fontFamily=Architects Daughter;fontSource=https%3A%2F%2Ffonts.googleapis.com%2Fcss%3Ffamily%3DArchitects%2BDaughter;fontSize=20;shadow=0;strokeWidth=2;rounded=1;fillColor=none;align=center;" parent="WTguVuReiUjEnsbTcqU9-1" vertex="1">
          <mxGeometry x="360" y="280" width="120" height="50" as="geometry" />
        </mxCell>
        <mxCell id="60XK2_KCmiy80lGmcRLf-11" value="&lt;font face=&quot;Times New Roman&quot;&gt;&lt;span style=&quot;font-size: 14px;&quot;&gt;Edit Score&lt;/span&gt;&lt;/font&gt;" style="ellipse;whiteSpace=wrap;html=1;hachureGap=4;fontFamily=Architects Daughter;fontSource=https%3A%2F%2Ffonts.googleapis.com%2Fcss%3Ffamily%3DArchitects%2BDaughter;fontSize=20;shadow=0;strokeWidth=2;rounded=1;fillColor=none;align=center;" parent="WTguVuReiUjEnsbTcqU9-1" vertex="1">
          <mxGeometry x="360" y="350" width="120" height="50" as="geometry" />
        </mxCell>
        <mxCell id="60XK2_KCmiy80lGmcRLf-12" value="&lt;font face=&quot;Times New Roman&quot;&gt;&lt;span style=&quot;font-size: 14px;&quot;&gt;Verify Score&lt;/span&gt;&lt;/font&gt;" style="ellipse;whiteSpace=wrap;html=1;hachureGap=4;fontFamily=Architects Daughter;fontSource=https%3A%2F%2Ffonts.googleapis.com%2Fcss%3Ffamily%3DArchitects%2BDaughter;fontSize=20;shadow=0;strokeWidth=2;rounded=1;fillColor=none;" parent="WTguVuReiUjEnsbTcqU9-1" vertex="1">
          <mxGeometry x="80" y="510" width="120" height="50" as="geometry" />
        </mxCell>
        <mxCell id="60XK2_KCmiy80lGmcRLf-13" value="" style="endArrow=block;dashed=1;html=1;dashPattern=1 3;strokeWidth=2;rounded=1;exitX=0;exitY=0.5;exitDx=0;exitDy=0;startArrow=none;startFill=0;entryX=1;entryY=0;entryDx=0;entryDy=0;endFill=1;" parent="WTguVuReiUjEnsbTcqU9-1" source="60XK2_KCmiy80lGmcRLf-10" target="WTguVuReiUjEnsbTcqU9-38" edge="1">
          <mxGeometry width="50" height="50" relative="1" as="geometry">
            <mxPoint x="370" y="635" as="sourcePoint" />
            <mxPoint x="210" y="635" as="targetPoint" />
            <Array as="points">
              <mxPoint x="331" y="307" />
            </Array>
          </mxGeometry>
        </mxCell>
        <mxCell id="60XK2_KCmiy80lGmcRLf-14" value="&amp;lt;&amp;lt;Extend&amp;gt;&amp;gt;" style="edgeLabel;html=1;align=center;verticalAlign=middle;resizable=0;points=[];rounded=1;" parent="60XK2_KCmiy80lGmcRLf-13" vertex="1" connectable="0">
          <mxGeometry x="-0.3697" y="-1" relative="1" as="geometry">
            <mxPoint x="-10" y="-6" as="offset" />
          </mxGeometry>
        </mxCell>
        <mxCell id="60XK2_KCmiy80lGmcRLf-18" value="" style="endArrow=none;dashed=1;html=1;dashPattern=1 3;strokeWidth=2;rounded=1;exitX=1;exitY=0.5;exitDx=0;exitDy=0;entryX=1;entryY=1;entryDx=0;entryDy=0;startArrow=block;startFill=1;" parent="WTguVuReiUjEnsbTcqU9-1" source="60XK2_KCmiy80lGmcRLf-12" target="WTguVuReiUjEnsbTcqU9-38" edge="1">
          <mxGeometry width="50" height="50" relative="1" as="geometry">
            <mxPoint x="370" y="565" as="sourcePoint" />
            <mxPoint x="210" y="565" as="targetPoint" />
            <Array as="points">
              <mxPoint x="280" y="535" />
              <mxPoint x="281" y="343" />
            </Array>
          </mxGeometry>
        </mxCell>
        <mxCell id="60XK2_KCmiy80lGmcRLf-19" value="&amp;lt;&amp;lt;Include&amp;gt;&amp;gt;" style="edgeLabel;html=1;align=center;verticalAlign=middle;resizable=0;points=[];rounded=1;" parent="60XK2_KCmiy80lGmcRLf-18" vertex="1" connectable="0">
          <mxGeometry x="-0.3697" y="-1" relative="1" as="geometry">
            <mxPoint x="-1" y="-29" as="offset" />
          </mxGeometry>
        </mxCell>
        <mxCell id="60XK2_KCmiy80lGmcRLf-20" value="" style="endArrow=block;dashed=1;html=1;dashPattern=1 3;strokeWidth=2;rounded=1;exitX=0;exitY=0.5;exitDx=0;exitDy=0;startArrow=none;startFill=0;entryX=1;entryY=0.5;entryDx=0;entryDy=0;endFill=1;" parent="WTguVuReiUjEnsbTcqU9-1" source="60XK2_KCmiy80lGmcRLf-11" target="WTguVuReiUjEnsbTcqU9-38" edge="1">
          <mxGeometry width="50" height="50" relative="1" as="geometry">
            <mxPoint x="370" y="355" as="sourcePoint" />
            <mxPoint x="210" y="355" as="targetPoint" />
            <Array as="points">
              <mxPoint x="331" y="325" />
            </Array>
          </mxGeometry>
        </mxCell>
        <mxCell id="60XK2_KCmiy80lGmcRLf-21" value="&amp;lt;&amp;lt;Extend&amp;gt;&amp;gt;" style="edgeLabel;html=1;align=center;verticalAlign=middle;resizable=0;points=[];rounded=1;" parent="60XK2_KCmiy80lGmcRLf-20" vertex="1" connectable="0">
          <mxGeometry x="-0.3697" y="-1" relative="1" as="geometry">
            <mxPoint x="15" y="8" as="offset" />
          </mxGeometry>
        </mxCell>
        <mxCell id="60XK2_KCmiy80lGmcRLf-22" value="&lt;font face=&quot;Times New Roman&quot; style=&quot;font-size: 14px;&quot;&gt;&lt;font style=&quot;font-size: 14px;&quot;&gt;View A&lt;/font&gt;nnouncement&lt;/font&gt;" style="ellipse;whiteSpace=wrap;html=1;hachureGap=4;fontFamily=Architects Daughter;fontSource=https%3A%2F%2Ffonts.googleapis.com%2Fcss%3Ffamily%3DArchitects%2BDaughter;fontSize=20;shadow=0;strokeWidth=2;rounded=1;fillColor=none;align=center;" parent="WTguVuReiUjEnsbTcqU9-1" vertex="1">
          <mxGeometry x="360" y="440" width="120" height="50" as="geometry" />
        </mxCell>
        <mxCell id="60XK2_KCmiy80lGmcRLf-27" value="&lt;p style=&quot;line-height: 60%;&quot;&gt;&lt;font face=&quot;Times New Roman&quot; style=&quot;font-size: 14px;&quot;&gt;Make an A&lt;font style=&quot;border-color: var(--border-color); font-size: 14px;&quot;&gt;nnouncement&lt;/font&gt;&lt;/font&gt;&lt;/p&gt;" style="ellipse;whiteSpace=wrap;html=1;hachureGap=4;fontFamily=Architects Daughter;fontSource=https%3A%2F%2Ffonts.googleapis.com%2Fcss%3Ffamily%3DArchitects%2BDaughter;fontSize=20;shadow=0;strokeWidth=2;rounded=1;fillColor=none;" parent="WTguVuReiUjEnsbTcqU9-1" vertex="1">
          <mxGeometry x="80" y="440" width="120" height="50" as="geometry" />
        </mxCell>
        <mxCell id="60XK2_KCmiy80lGmcRLf-31" value="&lt;font face=&quot;Times New Roman&quot;&gt;&lt;span style=&quot;font-size: 14px;&quot;&gt;Reset Password&lt;/span&gt;&lt;/font&gt;" style="ellipse;whiteSpace=wrap;html=1;hachureGap=4;fontFamily=Architects Daughter;fontSource=https%3A%2F%2Ffonts.googleapis.com%2Fcss%3Ffamily%3DArchitects%2BDaughter;fontSize=20;shadow=0;strokeWidth=2;rounded=1;fillColor=none;" parent="WTguVuReiUjEnsbTcqU9-1" vertex="1">
          <mxGeometry x="360" y="855" width="120" height="50" as="geometry" />
        </mxCell>
        <mxCell id="60XK2_KCmiy80lGmcRLf-32" value="" style="endArrow=block;dashed=1;html=1;dashPattern=1 3;strokeWidth=2;rounded=1;exitX=0;exitY=0.5;exitDx=0;exitDy=0;startArrow=none;startFill=0;entryX=1;entryY=0.5;entryDx=0;entryDy=0;endFill=1;" parent="WTguVuReiUjEnsbTcqU9-1" source="60XK2_KCmiy80lGmcRLf-31" target="WTguVuReiUjEnsbTcqU9-4" edge="1">
          <mxGeometry width="50" height="50" relative="1" as="geometry">
            <mxPoint x="370" y="810" as="sourcePoint" />
            <mxPoint x="210" y="810" as="targetPoint" />
          </mxGeometry>
        </mxCell>
        <mxCell id="60XK2_KCmiy80lGmcRLf-33" value="&amp;lt;&amp;lt;Extend&amp;gt;&amp;gt;" style="edgeLabel;html=1;align=center;verticalAlign=middle;resizable=0;points=[];rounded=1;" parent="60XK2_KCmiy80lGmcRLf-32" vertex="1" connectable="0">
          <mxGeometry x="-0.3697" y="-1" relative="1" as="geometry">
            <mxPoint x="-18" y="-9" as="offset" />
          </mxGeometry>
        </mxCell>
        <mxCell id="60XK2_KCmiy80lGmcRLf-37" value="&lt;p style=&quot;line-height: 60%;&quot;&gt;&lt;font face=&quot;Times New Roman&quot;&gt;&lt;span style=&quot;font-size: 14px;&quot;&gt;View Teacher Information&lt;/span&gt;&lt;/font&gt;&lt;/p&gt;" style="ellipse;whiteSpace=wrap;html=1;hachureGap=4;fontFamily=Architects Daughter;fontSource=https%3A%2F%2Ffonts.googleapis.com%2Fcss%3Ffamily%3DArchitects%2BDaughter;fontSize=20;shadow=0;strokeWidth=2;rounded=1;fillColor=none;" parent="WTguVuReiUjEnsbTcqU9-1" vertex="1">
          <mxGeometry x="360" y="195" width="120" height="50" as="geometry" />
        </mxCell>
        <mxCell id="60XK2_KCmiy80lGmcRLf-39" value="&lt;p style=&quot;line-height: 60%;&quot;&gt;&lt;font face=&quot;Times New Roman&quot;&gt;&lt;span style=&quot;font-size: 14px;&quot;&gt;Modify Student Information&lt;/span&gt;&lt;/font&gt;&lt;/p&gt;" style="ellipse;whiteSpace=wrap;html=1;hachureGap=4;fontFamily=Architects Daughter;fontSource=https%3A%2F%2Ffonts.googleapis.com%2Fcss%3Ffamily%3DArchitects%2BDaughter;fontSize=20;shadow=0;strokeWidth=2;rounded=1;fillColor=none;" parent="WTguVuReiUjEnsbTcqU9-1" vertex="1">
          <mxGeometry x="360" y="130" width="120" height="50" as="geometry" />
        </mxCell>
        <mxCell id="60XK2_KCmiy80lGmcRLf-41" value="&lt;font style=&quot;font-size: 14px;&quot; face=&quot;Times New Roman&quot;&gt;Check Attendance&lt;/font&gt;" style="ellipse;whiteSpace=wrap;html=1;hachureGap=4;fontFamily=Architects Daughter;fontSource=https%3A%2F%2Ffonts.googleapis.com%2Fcss%3Ffamily%3DArchitects%2BDaughter;fontSize=20;shadow=0;strokeWidth=2;rounded=1;fillColor=none;align=center;" parent="WTguVuReiUjEnsbTcqU9-1" vertex="1">
          <mxGeometry x="80" y="170" width="120" height="50" as="geometry" />
        </mxCell>
        <mxCell id="60XK2_KCmiy80lGmcRLf-42" value="&lt;p style=&quot;line-height: 86%;&quot;&gt;&lt;font style=&quot;font-size: 14px;&quot; face=&quot;Times New Roman&quot;&gt;View Attendance History&lt;/font&gt;&lt;/p&gt;" style="ellipse;whiteSpace=wrap;html=1;hachureGap=4;fontFamily=Architects Daughter;fontSource=https%3A%2F%2Ffonts.googleapis.com%2Fcss%3Ffamily%3DArchitects%2BDaughter;fontSize=20;shadow=0;strokeWidth=2;rounded=1;fillColor=none;align=center;" parent="WTguVuReiUjEnsbTcqU9-1" vertex="1">
          <mxGeometry x="360" y="60" width="120" height="50" as="geometry" />
        </mxCell>
        <mxCell id="twkVnTD5ivQT-UBwa-xq-1" value="&lt;p style=&quot;line-height: 70%;&quot;&gt;&lt;font style=&quot;font-size: 14px;&quot; face=&quot;Times New Roman&quot;&gt;Send Invitation Letter&lt;/font&gt;&lt;/p&gt;" style="ellipse;whiteSpace=wrap;html=1;hachureGap=4;fontFamily=Architects Daughter;fontSource=https%3A%2F%2Ffonts.googleapis.com%2Fcss%3Ffamily%3DArchitects%2BDaughter;fontSize=20;shadow=0;strokeWidth=2;rounded=1;fillColor=none;align=center;" vertex="1" parent="WTguVuReiUjEnsbTcqU9-1">
          <mxGeometry x="80" y="710" width="120" height="50" as="geometry" />
        </mxCell>
        <mxCell id="twkVnTD5ivQT-UBwa-xq-9" value="&lt;p style=&quot;line-height: 70%;&quot;&gt;&lt;font style=&quot;font-size: 14px;&quot; face=&quot;Times New Roman&quot;&gt;View Student Statistics&lt;/font&gt;&lt;/p&gt;" style="ellipse;whiteSpace=wrap;html=1;hachureGap=4;fontFamily=Architects Daughter;fontSource=https%3A%2F%2Ffonts.googleapis.com%2Fcss%3Ffamily%3DArchitects%2BDaughter;fontSize=20;shadow=0;strokeWidth=2;rounded=1;fillColor=none;align=center;" vertex="1" parent="WTguVuReiUjEnsbTcqU9-1">
          <mxGeometry x="80" y="780" width="120" height="50" as="geometry" />
        </mxCell>
        <mxCell id="WTguVuReiUjEnsbTcqU9-2" value="&lt;p style=&quot;line-height: 0%;&quot;&gt;&lt;font style=&quot;font-size: 14px;&quot; face=&quot;Times New Roman&quot;&gt;Teacher&lt;/font&gt;&lt;/p&gt;" style="shape=umlActor;verticalLabelPosition=bottom;verticalAlign=top;html=1;outlineConnect=0;hachureGap=4;fontFamily=Architects Daughter;fontSource=https%3A%2F%2Ffonts.googleapis.com%2Fcss%3Ffamily%3DArchitects%2BDaughter;fontSize=20;strokeWidth=2;rounded=1;" parent="1" vertex="1">
          <mxGeometry x="40" y="275" width="30" height="60" as="geometry" />
        </mxCell>
        <mxCell id="WTguVuReiUjEnsbTcqU9-7" value="&lt;p style=&quot;line-height: 0%;&quot;&gt;&lt;font style=&quot;font-size: 14px;&quot; face=&quot;Times New Roman&quot;&gt;Student&lt;/font&gt;&lt;/p&gt;" style="shape=umlActor;verticalLabelPosition=bottom;verticalAlign=top;html=1;outlineConnect=0;hachureGap=4;fontFamily=Architects Daughter;fontSource=https%3A%2F%2Ffonts.googleapis.com%2Fcss%3Ffamily%3DArchitects%2BDaughter;fontSize=20;strokeWidth=2;rounded=1;" parent="1" vertex="1">
          <mxGeometry x="739" y="575" width="30" height="60" as="geometry" />
        </mxCell>
        <mxCell id="WTguVuReiUjEnsbTcqU9-8" value="&lt;p style=&quot;line-height: 0%;&quot;&gt;&lt;font style=&quot;font-size: 14px;&quot; face=&quot;Times New Roman&quot;&gt;Parent&lt;/font&gt;&lt;/p&gt;" style="shape=umlActor;verticalLabelPosition=bottom;verticalAlign=top;html=1;outlineConnect=0;hachureGap=4;fontFamily=Architects Daughter;fontSource=https%3A%2F%2Ffonts.googleapis.com%2Fcss%3Ffamily%3DArchitects%2BDaughter;fontSize=20;strokeWidth=2;rounded=1;" parent="1" vertex="1">
          <mxGeometry x="739" y="240" width="30" height="60" as="geometry" />
        </mxCell>
        <mxCell id="WTguVuReiUjEnsbTcqU9-9" value="&lt;p style=&quot;line-height: 0%;&quot;&gt;&lt;font style=&quot;font-size: 14px;&quot; face=&quot;Times New Roman&quot;&gt;System Manager&lt;/font&gt;&lt;/p&gt;" style="shape=umlActor;verticalLabelPosition=bottom;verticalAlign=top;html=1;outlineConnect=0;hachureGap=4;fontFamily=Architects Daughter;fontSource=https%3A%2F%2Ffonts.googleapis.com%2Fcss%3Ffamily%3DArchitects%2BDaughter;fontSize=20;strokeWidth=2;rounded=1;" parent="1" vertex="1">
          <mxGeometry x="40" y="900" width="30" height="60" as="geometry" />
        </mxCell>
        <mxCell id="WTguVuReiUjEnsbTcqU9-12" value="&lt;p style=&quot;line-height: 0%;&quot;&gt;&lt;font style=&quot;font-size: 14px;&quot; face=&quot;Times New Roman&quot;&gt;Principal&lt;/font&gt;&lt;br&gt;&lt;/p&gt;" style="shape=umlActor;verticalLabelPosition=bottom;verticalAlign=top;html=1;outlineConnect=0;hachureGap=4;fontFamily=Architects Daughter;fontSource=https%3A%2F%2Ffonts.googleapis.com%2Fcss%3Ffamily%3DArchitects%2BDaughter;fontSize=20;strokeWidth=2;rounded=1;gradientColor=none;perimeterSpacing=0;" parent="1" vertex="1">
          <mxGeometry x="40" y="505" width="30" height="60" as="geometry" />
        </mxCell>
        <mxCell id="WTguVuReiUjEnsbTcqU9-17" value="" style="endArrow=none;html=1;rounded=1;exitX=0.5;exitY=0.5;exitDx=0;exitDy=0;exitPerimeter=0;entryX=0;entryY=0.5;entryDx=0;entryDy=0;" parent="1" source="WTguVuReiUjEnsbTcqU9-9" target="WTguVuReiUjEnsbTcqU9-4" edge="1">
          <mxGeometry width="50" height="50" relative="1" as="geometry">
            <mxPoint x="239" y="890" as="sourcePoint" />
            <mxPoint x="289" y="840" as="targetPoint" />
          </mxGeometry>
        </mxCell>
        <mxCell id="WTguVuReiUjEnsbTcqU9-28" value="" style="endArrow=none;html=1;rounded=1;entryX=0;entryY=0.5;entryDx=0;entryDy=0;exitX=0.5;exitY=0.5;exitDx=0;exitDy=0;exitPerimeter=0;" parent="1" source="WTguVuReiUjEnsbTcqU9-12" target="WTguVuReiUjEnsbTcqU9-27" edge="1">
          <mxGeometry width="50" height="50" relative="1" as="geometry">
            <mxPoint x="44" y="585" as="sourcePoint" />
            <mxPoint x="169" y="610" as="targetPoint" />
            <Array as="points">
              <mxPoint x="139" y="535" />
              <mxPoint x="139" y="725" />
            </Array>
          </mxGeometry>
        </mxCell>
        <mxCell id="WTguVuReiUjEnsbTcqU9-36" value="" style="endArrow=classic;html=1;rounded=1;entryX=0.5;entryY=0.5;entryDx=0;entryDy=0;entryPerimeter=0;exitX=0.5;exitY=0.5;exitDx=0;exitDy=0;exitPerimeter=0;strokeWidth=2;" parent="1" source="WTguVuReiUjEnsbTcqU9-8" target="WTguVuReiUjEnsbTcqU9-7" edge="1">
          <mxGeometry width="50" height="50" relative="1" as="geometry">
            <mxPoint x="709" y="460" as="sourcePoint" />
            <mxPoint x="759" y="410" as="targetPoint" />
            <Array as="points">
              <mxPoint x="799" y="315" />
              <mxPoint x="799" y="605" />
            </Array>
          </mxGeometry>
        </mxCell>
        <mxCell id="WTguVuReiUjEnsbTcqU9-43" value="" style="endArrow=none;html=1;rounded=1;entryX=0.5;entryY=0.5;entryDx=0;entryDy=0;entryPerimeter=0;exitX=1;exitY=0.5;exitDx=0;exitDy=0;" parent="1" source="WTguVuReiUjEnsbTcqU9-31" target="WTguVuReiUjEnsbTcqU9-7" edge="1">
          <mxGeometry width="50" height="50" relative="1" as="geometry">
            <mxPoint x="209" y="380" as="sourcePoint" />
            <mxPoint x="259" y="330" as="targetPoint" />
            <Array as="points">
              <mxPoint x="659" y="725" />
              <mxPoint x="659" y="605" />
            </Array>
          </mxGeometry>
        </mxCell>
        <mxCell id="WTguVuReiUjEnsbTcqU9-48" value="" style="endArrow=none;html=1;rounded=1;entryX=0;entryY=0.5;entryDx=0;entryDy=0;exitX=0.5;exitY=0.5;exitDx=0;exitDy=0;exitPerimeter=0;" parent="1" source="WTguVuReiUjEnsbTcqU9-12" target="WTguVuReiUjEnsbTcqU9-18" edge="1">
          <mxGeometry width="50" height="50" relative="1" as="geometry">
            <mxPoint x="44" y="585" as="sourcePoint" />
            <mxPoint x="329" y="610" as="targetPoint" />
            <Array as="points">
              <mxPoint x="139" y="535" />
              <mxPoint x="139" y="655" />
            </Array>
          </mxGeometry>
        </mxCell>
        <mxCell id="WTguVuReiUjEnsbTcqU9-50" value="" style="endArrow=none;html=1;rounded=1;entryX=0;entryY=0.5;entryDx=0;entryDy=0;exitX=0.5;exitY=0.5;exitDx=0;exitDy=0;exitPerimeter=0;" parent="1" source="WTguVuReiUjEnsbTcqU9-2" target="WTguVuReiUjEnsbTcqU9-38" edge="1">
          <mxGeometry width="50" height="50" relative="1" as="geometry">
            <mxPoint x="359" y="510" as="sourcePoint" />
            <mxPoint x="409" y="460" as="targetPoint" />
            <Array as="points">
              <mxPoint x="139" y="305" />
              <mxPoint x="139" y="375" />
            </Array>
          </mxGeometry>
        </mxCell>
        <mxCell id="WTguVuReiUjEnsbTcqU9-53" value="" style="endArrow=none;html=1;rounded=1;entryX=0;entryY=0.5;entryDx=0;entryDy=0;exitX=0.5;exitY=0.5;exitDx=0;exitDy=0;exitPerimeter=0;" parent="1" source="WTguVuReiUjEnsbTcqU9-12" target="WTguVuReiUjEnsbTcqU9-31" edge="1">
          <mxGeometry width="50" height="50" relative="1" as="geometry">
            <mxPoint x="44" y="585" as="sourcePoint" />
            <mxPoint x="369" y="560" as="targetPoint" />
            <Array as="points">
              <mxPoint x="139" y="535" />
              <mxPoint x="139" y="695" />
              <mxPoint x="340" y="695" />
              <mxPoint x="340" y="725" />
            </Array>
          </mxGeometry>
        </mxCell>
        <mxCell id="WTguVuReiUjEnsbTcqU9-56" value="" style="endArrow=none;html=1;rounded=1;exitX=0.5;exitY=0.5;exitDx=0;exitDy=0;exitPerimeter=0;entryX=0;entryY=0.5;entryDx=0;entryDy=0;" parent="1" source="WTguVuReiUjEnsbTcqU9-2" target="25oMk8hFQCMw-sVHnNX6-2" edge="1">
          <mxGeometry width="50" height="50" relative="1" as="geometry">
            <mxPoint x="279" y="440" as="sourcePoint" />
            <mxPoint x="199" y="324.9999999999999" as="targetPoint" />
            <Array as="points" />
          </mxGeometry>
        </mxCell>
        <mxCell id="WTguVuReiUjEnsbTcqU9-59" value="" style="endArrow=none;html=1;rounded=1;entryX=0;entryY=0.5;entryDx=0;entryDy=0;exitX=0.5;exitY=0.5;exitDx=0;exitDy=0;exitPerimeter=0;" parent="1" source="WTguVuReiUjEnsbTcqU9-12" target="WTguVuReiUjEnsbTcqU9-58" edge="1">
          <mxGeometry width="50" height="50" relative="1" as="geometry">
            <mxPoint x="44" y="585" as="sourcePoint" />
            <mxPoint x="319" y="520" as="targetPoint" />
            <Array as="points">
              <mxPoint x="139" y="535" />
              <mxPoint x="139" y="445" />
            </Array>
          </mxGeometry>
        </mxCell>
        <mxCell id="WTguVuReiUjEnsbTcqU9-60" value="" style="endArrow=none;html=1;rounded=1;entryX=0;entryY=0;entryDx=0;entryDy=0;exitX=0.5;exitY=0.5;exitDx=0;exitDy=0;exitPerimeter=0;" parent="1" source="WTguVuReiUjEnsbTcqU9-2" target="WTguVuReiUjEnsbTcqU9-58" edge="1">
          <mxGeometry width="50" height="50" relative="1" as="geometry">
            <mxPoint x="269" y="520" as="sourcePoint" />
            <mxPoint x="319" y="470" as="targetPoint" />
            <Array as="points">
              <mxPoint x="139" y="305" />
              <mxPoint x="139" y="427" />
            </Array>
          </mxGeometry>
        </mxCell>
        <mxCell id="60XK2_KCmiy80lGmcRLf-17" value="" style="endArrow=none;html=1;rounded=1;entryX=0;entryY=0.5;entryDx=0;entryDy=0;exitX=0.5;exitY=0.5;exitDx=0;exitDy=0;exitPerimeter=0;" parent="1" source="WTguVuReiUjEnsbTcqU9-12" target="60XK2_KCmiy80lGmcRLf-12" edge="1">
          <mxGeometry width="50" height="50" relative="1" as="geometry">
            <mxPoint x="259" y="490" as="sourcePoint" />
            <mxPoint x="309" y="440" as="targetPoint" />
            <Array as="points">
              <mxPoint x="139" y="535" />
              <mxPoint x="139" y="585" />
            </Array>
          </mxGeometry>
        </mxCell>
        <mxCell id="60XK2_KCmiy80lGmcRLf-23" value="" style="endArrow=none;html=1;rounded=1;entryX=1;entryY=0.5;entryDx=0;entryDy=0;exitX=0.5;exitY=0.5;exitDx=0;exitDy=0;exitPerimeter=0;" parent="1" source="WTguVuReiUjEnsbTcqU9-7" target="60XK2_KCmiy80lGmcRLf-22" edge="1">
          <mxGeometry width="50" height="50" relative="1" as="geometry">
            <mxPoint x="259" y="490" as="sourcePoint" />
            <mxPoint x="309" y="440" as="targetPoint" />
            <Array as="points">
              <mxPoint x="659" y="605" />
              <mxPoint x="659" y="515" />
            </Array>
          </mxGeometry>
        </mxCell>
        <mxCell id="60XK2_KCmiy80lGmcRLf-28" value="" style="endArrow=none;html=1;rounded=1;entryX=0;entryY=0.5;entryDx=0;entryDy=0;exitX=0.5;exitY=0.5;exitDx=0;exitDy=0;exitPerimeter=0;" parent="1" source="WTguVuReiUjEnsbTcqU9-12" target="60XK2_KCmiy80lGmcRLf-27" edge="1">
          <mxGeometry width="50" height="50" relative="1" as="geometry">
            <mxPoint x="269" y="520" as="sourcePoint" />
            <mxPoint x="319" y="470" as="targetPoint" />
            <Array as="points">
              <mxPoint x="139" y="535" />
              <mxPoint x="139" y="515" />
            </Array>
          </mxGeometry>
        </mxCell>
        <mxCell id="60XK2_KCmiy80lGmcRLf-29" value="" style="endArrow=none;html=1;rounded=1;entryX=1;entryY=0.5;entryDx=0;entryDy=0;exitX=0.5;exitY=0.5;exitDx=0;exitDy=0;exitPerimeter=0;" parent="1" source="WTguVuReiUjEnsbTcqU9-2" target="60XK2_KCmiy80lGmcRLf-27" edge="1">
          <mxGeometry width="50" height="50" relative="1" as="geometry">
            <mxPoint x="269" y="600" as="sourcePoint" />
            <mxPoint x="319" y="550" as="targetPoint" />
            <Array as="points">
              <mxPoint x="139" y="305" />
              <mxPoint x="139" y="410" />
              <mxPoint x="349" y="410" />
              <mxPoint x="349" y="515" />
            </Array>
          </mxGeometry>
        </mxCell>
        <mxCell id="60XK2_KCmiy80lGmcRLf-30" value="" style="endArrow=none;html=1;rounded=1;entryX=1;entryY=0.5;entryDx=0;entryDy=0;exitX=0.5;exitY=0.5;exitDx=0;exitDy=0;exitPerimeter=0;" parent="1" source="WTguVuReiUjEnsbTcqU9-7" target="25oMk8hFQCMw-sVHnNX6-2" edge="1">
          <mxGeometry width="50" height="50" relative="1" as="geometry">
            <mxPoint x="329" y="510" as="sourcePoint" />
            <mxPoint x="379" y="460" as="targetPoint" />
            <Array as="points">
              <mxPoint x="659" y="605" />
              <mxPoint x="659" y="305" />
            </Array>
          </mxGeometry>
        </mxCell>
        <mxCell id="60XK2_KCmiy80lGmcRLf-35" value="" style="endArrow=none;html=1;rounded=1;entryX=0.5;entryY=0.5;entryDx=0;entryDy=0;entryPerimeter=0;exitX=0;exitY=1;exitDx=0;exitDy=0;jumpStyle=sharp;jumpSize=6;" parent="1" source="WTguVuReiUjEnsbTcqU9-31" target="WTguVuReiUjEnsbTcqU9-2" edge="1">
          <mxGeometry width="50" height="50" relative="1" as="geometry">
            <mxPoint x="329" y="575" as="sourcePoint" />
            <mxPoint x="379" y="525" as="targetPoint" />
            <Array as="points">
              <mxPoint x="490" y="755" />
              <mxPoint x="129" y="755" />
              <mxPoint x="129" y="305" />
            </Array>
          </mxGeometry>
        </mxCell>
        <mxCell id="60XK2_KCmiy80lGmcRLf-38" value="" style="endArrow=none;html=1;rounded=1;entryX=0.5;entryY=0.5;entryDx=0;entryDy=0;entryPerimeter=0;exitX=1;exitY=0.5;exitDx=0;exitDy=0;" parent="1" source="60XK2_KCmiy80lGmcRLf-37" target="WTguVuReiUjEnsbTcqU9-8" edge="1">
          <mxGeometry width="50" height="50" relative="1" as="geometry">
            <mxPoint x="700" y="265" as="sourcePoint" />
            <mxPoint x="750" y="215" as="targetPoint" />
            <Array as="points" />
          </mxGeometry>
        </mxCell>
        <mxCell id="60XK2_KCmiy80lGmcRLf-40" value="" style="endArrow=none;html=1;rounded=1;entryX=0.5;entryY=0.5;entryDx=0;entryDy=0;entryPerimeter=0;exitX=1;exitY=0.5;exitDx=0;exitDy=0;" parent="1" source="60XK2_KCmiy80lGmcRLf-39" target="WTguVuReiUjEnsbTcqU9-8" edge="1">
          <mxGeometry width="50" height="50" relative="1" as="geometry">
            <mxPoint x="609" y="280" as="sourcePoint" />
            <mxPoint x="764" y="280" as="targetPoint" />
            <Array as="points">
              <mxPoint x="660" y="205" />
              <mxPoint x="660" y="270" />
            </Array>
          </mxGeometry>
        </mxCell>
        <mxCell id="60XK2_KCmiy80lGmcRLf-43" value="" style="endArrow=none;html=1;rounded=1;exitX=1;exitY=0.5;exitDx=0;exitDy=0;" parent="1" source="60XK2_KCmiy80lGmcRLf-42" edge="1">
          <mxGeometry width="50" height="50" relative="1" as="geometry">
            <mxPoint x="609" y="215" as="sourcePoint" />
            <mxPoint x="750" y="270" as="targetPoint" />
            <Array as="points">
              <mxPoint x="660" y="135" />
              <mxPoint x="660" y="270" />
            </Array>
          </mxGeometry>
        </mxCell>
        <mxCell id="60XK2_KCmiy80lGmcRLf-44" value="" style="endArrow=none;html=1;rounded=1;entryX=0;entryY=0.5;entryDx=0;entryDy=0;exitX=0.5;exitY=0.5;exitDx=0;exitDy=0;exitPerimeter=0;" parent="1" source="WTguVuReiUjEnsbTcqU9-2" target="60XK2_KCmiy80lGmcRLf-41" edge="1">
          <mxGeometry width="50" height="50" relative="1" as="geometry">
            <mxPoint x="60" y="310" as="sourcePoint" />
            <mxPoint x="370" y="290" as="targetPoint" />
            <Array as="points">
              <mxPoint x="130" y="305" />
              <mxPoint x="130" y="245" />
            </Array>
          </mxGeometry>
        </mxCell>
        <mxCell id="60XK2_KCmiy80lGmcRLf-45" value="" style="endArrow=none;html=1;rounded=1;entryX=0;entryY=0.5;entryDx=0;entryDy=0;exitX=0.5;exitY=0.5;exitDx=0;exitDy=0;exitPerimeter=0;" parent="1" source="WTguVuReiUjEnsbTcqU9-2" target="60XK2_KCmiy80lGmcRLf-42" edge="1">
          <mxGeometry width="50" height="50" relative="1" as="geometry">
            <mxPoint x="230" y="360" as="sourcePoint" />
            <mxPoint x="280" y="310" as="targetPoint" />
            <Array as="points">
              <mxPoint x="130" y="305" />
              <mxPoint x="130" y="135" />
            </Array>
          </mxGeometry>
        </mxCell>
        <mxCell id="twkVnTD5ivQT-UBwa-xq-6" style="edgeStyle=orthogonalEdgeStyle;rounded=1;orthogonalLoop=1;jettySize=auto;html=1;entryX=0.5;entryY=0.5;entryDx=0;entryDy=0;entryPerimeter=0;endArrow=none;endFill=0;jumpStyle=none;" edge="1" parent="1" source="twkVnTD5ivQT-UBwa-xq-1" target="WTguVuReiUjEnsbTcqU9-12">
          <mxGeometry relative="1" as="geometry">
            <Array as="points">
              <mxPoint x="110" y="800" />
              <mxPoint x="110" y="535" />
            </Array>
          </mxGeometry>
        </mxCell>
        <mxCell id="twkVnTD5ivQT-UBwa-xq-7" style="edgeStyle=orthogonalEdgeStyle;rounded=1;orthogonalLoop=1;jettySize=auto;html=1;entryX=0.5;entryY=0.5;entryDx=0;entryDy=0;entryPerimeter=0;endArrow=none;endFill=0;exitX=0;exitY=0.5;exitDx=0;exitDy=0;jumpStyle=sharp;" edge="1" parent="1" source="twkVnTD5ivQT-UBwa-xq-1" target="WTguVuReiUjEnsbTcqU9-2">
          <mxGeometry relative="1" as="geometry">
            <Array as="points">
              <mxPoint x="90" y="785" />
              <mxPoint x="90" y="305" />
            </Array>
          </mxGeometry>
        </mxCell>
        <mxCell id="twkVnTD5ivQT-UBwa-xq-10" value="" style="endArrow=none;html=1;rounded=1;entryX=0;entryY=0.5;entryDx=0;entryDy=0;exitX=0.5;exitY=0.5;exitDx=0;exitDy=0;exitPerimeter=0;" edge="1" parent="1" source="WTguVuReiUjEnsbTcqU9-12" target="twkVnTD5ivQT-UBwa-xq-9">
          <mxGeometry width="50" height="50" relative="1" as="geometry">
            <mxPoint x="330" y="760" as="sourcePoint" />
            <mxPoint x="380" y="710" as="targetPoint" />
            <Array as="points">
              <mxPoint x="110" y="535" />
              <mxPoint x="110" y="855" />
            </Array>
          </mxGeometry>
        </mxCell>
        <mxCell id="twkVnTD5ivQT-UBwa-xq-11" value="" style="endArrow=none;html=1;rounded=1;entryX=0;entryY=1;entryDx=0;entryDy=0;exitX=0.5;exitY=0.5;exitDx=0;exitDy=0;exitPerimeter=0;jumpStyle=sharp;" edge="1" parent="1" source="WTguVuReiUjEnsbTcqU9-2" target="twkVnTD5ivQT-UBwa-xq-9">
          <mxGeometry width="50" height="50" relative="1" as="geometry">
            <mxPoint x="330" y="760" as="sourcePoint" />
            <mxPoint x="380" y="710" as="targetPoint" />
            <Array as="points">
              <mxPoint x="90" y="305" />
              <mxPoint x="90" y="873" />
            </Array>
          </mxGeometry>
        </mxCell>
      </root>
    </mxGraphModel>
  </diagram>
</mxfile>
